# Blender v2.90.1 OBJ File: 'trash.blend'
# www.blender.org
mtllib trash.mtl
o Cube
v 0.495442 0.545576 -0.500000
v 0.386059 -0.120806 -0.281234
v 0.445308 0.500000 0.439839
v 0.500000 -0.500000 0.500000
v -0.363271 0.500000 -0.423432
v -0.386059 -0.285792 -0.413405
v -0.303111 0.381502 0.344129
v -0.500000 -0.322253 0.591153
v -0.550145 -0.263014 -0.214613
v -0.664259 -0.484689 0.022788
v -0.572933 -0.217438 0.269304
v 0.173594 -0.472665 -0.572933
v 0.025523 -0.295092 -0.472839
v -0.187267 -0.446231 -0.753415
v 0.572933 0.296650 -0.572933
v 0.472839 0.236997 -0.609568
v 0.449877 0.102598 -0.605748
v -0.572933 -0.004962 0.263014
v -0.609568 0.250669 0.240400
v -0.572933 0.223728 0.522799
v 0.507303 0.296650 0.501834
v 0.609568 0.109383 0.308765
v 0.463550 -0.165390 0.589340
v -0.469019 0.296650 -0.496365
v -0.609568 0.104825 -0.440936
v -0.372397 -0.091557 -0.431646
v 0.277508 0.431646 0.561995
v 0.103002 0.336110 0.456432
v -0.296650 0.572933 0.572933
v 0.572933 0.534649 -0.105230
v 0.358898 0.246781 0.005469
v 0.572933 0.572933 0.296650
v -0.121637 -0.600278 0.483603
v -0.098445 -0.352518 0.609568
v 0.138045 -0.479957 0.572933
v -0.572933 0.682316 0.278419
v -0.689782 0.636914 0.224235
v -0.568375 0.413416 -0.296650
v -0.181798 0.737007 -0.365105
v -0.099356 0.336110 -0.308764
v 0.296650 0.572933 -0.452611
v 0.572933 -0.261191 0.077884
v 0.605010 -0.499273 -0.120321
v 0.349609 -0.450788 -0.471663
v 0.432832 0.756336 -0.064576
v -0.027346 0.508371 -0.333140
v -0.266023 0.419071 -0.201305
v 0.538234 0.588585 0.054692
v -0.104825 0.766584 0.000000
v -0.135340 0.471910 -0.103914
v 0.447417 0.728990 0.359910
v -0.027346 0.508371 0.333141
v -0.348060 0.419071 0.316157
v 0.316157 -0.316157 0.728990
v 0.333140 -0.000000 0.781829
v 0.316157 0.316157 0.728990
v -0.000000 -0.292122 0.704349
v 0.118498 -0.100268 0.839506
v 0.018231 0.137163 0.781829
v -0.193101 -0.070045 0.770009
v -0.506330 -0.027346 0.749925
v -0.142967 0.247793 0.710759
v -0.728990 0.098587 0.156640
v -0.781829 0.223324 0.073356
v -0.728990 0.215889 0.029027
v -0.681561 -0.228315 -0.000000
v -0.839506 0.000000 -0.000000
v -0.781829 0.333140 0.000000
v -0.574031 -0.024469 -0.065488
v -0.781829 0.113941 -0.191854
v -0.685237 0.328919 -0.341680
v -0.489347 -0.533012 -0.316157
v -0.163163 -0.494698 -0.502684
v 0.254173 -0.564915 -0.157552
v -0.474427 -0.471910 -0.091153
v 0.076568 -0.660847 -0.263431
v 0.074267 -0.645100 0.191420
v -0.119268 -0.382610 0.134764
v -0.049222 -0.510194 0.336787
v 0.316157 -0.728990 0.316157
v 0.519339 -0.032673 -0.141144
v 0.658773 0.124879 -0.054214
v 0.728990 0.223182 -0.152083
v 0.508371 -0.004991 0.000000
v 0.839506 0.185951 0.164075
v 0.877539 0.238342 -0.054692
v 0.728990 0.055745 0.179428
v 0.781829 0.158605 0.201881
v 0.728990 0.392725 0.447417
v -0.111064 -0.010796 -0.728990
v -0.050568 0.145844 -0.781829
v -0.316157 0.316157 -0.728990
v 0.191420 -0.301237 -0.781829
v 0.118498 -0.100268 -0.839506
v 0.018230 0.137163 -0.781829
v 0.074603 -0.343503 -0.728990
v 0.164508 0.077480 -0.781829
v 0.375406 0.605111 -0.657891
vt 0.696045 0.554579
vt 0.752821 0.559896
vt 0.751736 0.625000
vt 0.692491 0.625000
vt 0.812853 0.562174
vt 0.812717 0.625000
vt 0.752821 0.690104
vt 0.696045 0.695421
vt 0.812853 0.687826
vt 0.666667 0.458333
vt 0.705078 0.482422
vt 0.637912 0.550456
vt 0.755208 0.494792
vt 0.813151 0.499349
vt 0.875000 0.500000
vt 0.875000 0.562500
vt 0.875000 0.625000
vt 0.875000 0.687500
vt 0.875000 0.750000
vt 0.813151 0.750651
vt 0.755208 0.755208
vt 0.705078 0.767578
vt 0.637912 0.699544
vt 0.666667 0.791667
vt 0.631945 0.625000
vt 0.429579 0.821045
vt 0.500000 0.817491
vt 0.500000 0.876736
vt 0.434896 0.877821
vt 0.570421 0.821045
vt 0.565104 0.877821
vt 0.500000 0.937717
vt 0.437174 0.937853
vt 0.562826 0.937853
vt 0.333333 0.791667
vt 0.425456 0.762912
vt 0.357422 0.830078
vt 0.500000 0.756944
vt 0.574544 0.762912
vt 0.642578 0.830078
vt 0.630208 0.880208
vt 0.625651 0.938151
vt 0.625000 1.000000
vt 0.562500 1.000000
vt 0.500000 1.000000
vt 0.437500 1.000000
vt 0.374349 0.938151
vt 0.375000 1.000000
vt 0.369792 0.880208
vt 0.437500 0.062500
vt 0.500000 0.062500
vt 0.500000 0.125000
vt 0.437500 0.125000
vt 0.562500 0.062500
vt 0.562500 0.125000
vt 0.500000 0.187500
vt 0.437500 0.187500
vt 0.562500 0.187500
vt 0.375000 0.000000
vt 0.437500 0.000000
vt 0.375000 0.062500
vt 0.500000 0.000000
vt 0.562500 0.000000
vt 0.625000 0.000000
vt 0.625000 0.062500
vt 0.625000 0.125000
vt 0.625000 0.187500
vt 0.625000 0.250000
vt 0.562500 0.250000
vt 0.500000 0.250000
vt 0.437500 0.250000
vt 0.375000 0.187500
vt 0.375000 0.250000
vt 0.375000 0.125000
vt 0.187147 0.562174
vt 0.247179 0.559896
vt 0.248264 0.625000
vt 0.187283 0.625000
vt 0.303955 0.554579
vt 0.307509 0.625000
vt 0.247179 0.690104
vt 0.187147 0.687826
vt 0.303955 0.695421
vt 0.125000 0.500000
vt 0.186849 0.499349
vt 0.125000 0.562500
vt 0.244792 0.494792
vt 0.294922 0.482422
vt 0.333333 0.458333
vt 0.362088 0.550456
vt 0.368056 0.625000
vt 0.362088 0.699544
vt 0.294922 0.767578
vt 0.244792 0.755208
vt 0.186849 0.750651
vt 0.125000 0.687500
vt 0.125000 0.750000
vt 0.125000 0.625000
vt 0.429742 0.554742
vt 0.500000 0.557726
vt 0.500000 0.625000
vt 0.432726 0.625000
vt 0.570258 0.554742
vt 0.567274 0.625000
vt 0.500000 0.692274
vt 0.429742 0.695258
vt 0.570258 0.695258
vt 0.425456 0.487088
vt 0.500000 0.493056
vt 0.574544 0.487088
vt 0.437174 0.312147
vt 0.500000 0.312283
vt 0.500000 0.373264
vt 0.434896 0.372179
vt 0.562826 0.312147
vt 0.565104 0.372179
vt 0.500000 0.432509
vt 0.429579 0.428955
vt 0.570421 0.428955
vt 0.374349 0.311849
vt 0.625651 0.311849
vt 0.630208 0.369792
vt 0.642578 0.419922
vt 0.357422 0.419922
vt 0.369792 0.369792
vn -0.0048 0.9806 -0.1958
vn -0.7937 0.5354 -0.2888
vn -0.0506 0.9823 0.1802
vn -0.7518 0.6461 0.1319
vn 0.5074 0.8020 -0.3152
vn -0.3522 0.7619 -0.5435
vn 0.6309 0.5082 0.5862
vn -0.5103 0.7117 0.4827
vn 0.0586 0.9111 -0.4081
vn 0.5114 0.8514 0.1167
vn -0.7180 -0.4943 0.4900
vn 0.1944 0.9799 -0.0455
vn -0.4131 0.5419 0.7319
vn 0.5706 0.2659 0.7769
vn 0.9865 -0.0736 -0.1462
vn 0.9637 -0.1062 0.2449
vn 0.1106 -0.3707 0.9221
vn 0.0931 0.2139 0.9724
vn -0.2308 -0.5762 0.7840
vn -0.1371 0.2514 0.9581
vn 0.4398 -0.4942 0.7499
vn 0.8242 -0.0091 0.5662
vn 0.8285 0.0407 0.5585
vn 0.5136 0.6016 0.6119
vn -0.4879 0.7557 0.4369
vn 0.4402 0.6264 0.6433
vn -0.7153 0.4952 0.4930
vn -0.6461 0.4107 0.6434
vn -0.6517 -0.7565 0.0544
vn -0.4793 -0.0385 0.8768
vn -0.1690 -0.5290 0.8316
vn -0.1597 -0.6420 0.7499
vn -0.7024 -0.2633 0.6613
vn -0.7934 0.3381 0.5062
vn -0.2490 -0.5281 -0.8119
vn -0.9509 0.2039 -0.2330
vn -0.8789 0.0141 0.4768
vn -0.6292 0.0676 0.7743
vn 0.7930 -0.4855 -0.3681
vn -0.6413 0.3608 0.6771
vn -0.5226 -0.3181 0.7910
vn -0.7078 0.6181 -0.3421
vn -0.4873 0.6262 -0.6086
vn -0.7156 0.0663 -0.6953
vn -0.5401 -0.8102 -0.2279
vn -0.8193 0.1482 -0.5539
vn -0.8464 0.0645 -0.5287
vn -0.9085 -0.1866 0.3740
vn -0.2098 -0.9721 -0.1049
vn 0.6004 -0.7141 -0.3601
vn -0.4372 -0.8239 0.3607
vn -0.6284 -0.7590 0.1705
vn -0.8070 0.1088 -0.5805
vn 0.3567 -0.9103 -0.2102
vn -0.0771 -0.7844 -0.6154
vn 0.4978 -0.3667 -0.7860
vn 0.2005 -0.9595 -0.1979
vn 0.6077 -0.7940 -0.0157
vn 0.6470 -0.7203 0.2501
vn -0.4180 -0.7983 0.4337
vn 0.7834 -0.6215 0.0050
vn -0.5166 -0.7916 -0.3263
vn 0.0325 -0.8123 0.5823
vn -0.8000 -0.4925 -0.3426
vn 0.6277 -0.7712 -0.1060
vn 0.4446 -0.8582 -0.2565
vn 0.6715 -0.6181 -0.4087
vn 0.9353 0.0153 0.3536
vn 0.7772 -0.2776 -0.5647
vn 0.8653 -0.3925 -0.3119
vn 0.5701 -0.7471 -0.3418
vn 0.8855 0.4141 -0.2107
vn 0.3646 0.5079 0.7804
vn 0.2944 0.8065 -0.5128
vn 0.1887 0.5562 0.8093
vn 0.4818 -0.5406 0.6897
vn 0.7458 0.0607 0.6634
vn 0.9379 -0.2443 0.2463
vn 0.8692 0.0702 -0.4895
vn 0.8888 0.1438 -0.4351
vn -0.5013 -0.2713 -0.8216
vn 0.0369 0.2921 -0.9557
vn 0.8732 0.0621 0.4834
vn 0.0889 0.2179 -0.9719
vn -0.7978 0.1197 -0.5909
vn -0.5265 -0.3959 -0.7523
vn -0.6019 -0.2133 -0.7696
vn -0.6792 0.5779 -0.4524
vn 0.7424 0.5312 -0.4082
vn -0.6442 0.6784 -0.3532
vn 0.6434 0.7356 -0.2118
vn 0.4540 0.0032 -0.8910
vn 0.5275 -0.1916 -0.8276
vn 0.8296 -0.4195 -0.3685
vn -0.9803 -0.1032 -0.1683
vn 0.1760 -0.6109 -0.7719
usemtl trash.Material
s off
f 45/1/1 46/2/1 49/3/1 48/4/1
f 46/2/2 47/5/2 50/6/2 49/3/2
f 48/4/3 49/3/3 52/7/3 51/8/3
f 49/3/4 50/6/4 53/9/4 52/7/4
f 1/10/5 41/11/5 45/1/5 30/12/5
f 41/11/6 40/13/6 46/2/6 45/1/6
f 40/13/7 39/14/7 47/5/7 46/2/7
f 39/14/8 5/15/8 38/16/8 47/5/8
f 47/5/9 38/16/9 37/17/9 50/6/9
f 50/6/10 37/17/10 36/18/10 53/9/10
f 53/9/11 36/18/11 7/19/11 29/20/11
f 52/7/12 53/9/12 29/20/12 28/21/12
f 51/8/13 52/7/13 28/21/13 27/22/13
f 32/23/14 51/8/14 27/22/14 3/24/14
f 31/25/15 48/4/15 51/8/15 32/23/15
f 30/12/16 45/1/16 48/4/16 31/25/16
f 54/26/17 55/27/17 58/28/17 57/29/17
f 55/27/18 56/30/18 59/31/18 58/28/18
f 57/29/19 58/28/19 61/32/19 60/33/19
f 58/28/20 59/31/20 62/34/20 61/32/20
f 4/35/21 23/36/21 54/26/21 35/37/21
f 23/36/22 22/38/22 55/27/22 54/26/22
f 22/38/23 21/39/23 56/30/23 55/27/23
f 21/39/24 3/24/24 27/40/24 56/30/24
f 56/30/25 27/40/25 28/41/25 59/31/25
f 59/31/26 28/41/26 29/42/26 62/34/26
f 62/34/27 29/42/27 7/43/27 20/44/27
f 61/32/28 62/34/28 20/44/28 19/45/28
f 60/33/29 61/32/29 19/45/29 18/46/29
f 33/47/30 60/33/30 18/46/30 8/48/30
f 34/49/31 57/29/31 60/33/31 33/47/31
f 35/37/32 54/26/32 57/29/32 34/49/32
f 63/50/33 64/51/33 67/52/33 66/53/33
f 64/51/34 65/54/34 68/55/34 67/52/34
f 66/53/35 67/52/35 70/56/35 69/57/35
f 67/52/36 68/55/36 71/58/36 70/56/36
f 8/59/37 18/60/37 63/50/37 11/61/37
f 18/60/38 19/62/38 64/51/38 63/50/38
f 19/62/39 20/63/39 65/54/39 64/51/39
f 20/63/40 7/64/40 36/65/40 65/54/40
f 65/54/41 36/65/41 37/66/41 68/55/41
f 68/55/42 37/66/42 38/67/42 71/58/42
f 71/58/43 38/67/43 5/68/43 24/69/43
f 70/56/44 71/58/44 24/69/44 25/70/44
f 69/57/45 70/56/45 25/70/45 26/71/45
f 9/72/46 69/57/46 26/71/46 6/73/46
f 10/74/47 66/53/47 69/57/47 9/72/47
f 11/61/48 63/50/48 66/53/48 10/74/48
f 72/75/49 73/76/49 76/77/49 75/78/49
f 73/76/50 74/79/50 77/80/50 76/77/50
f 75/78/51 76/77/51 79/81/51 78/82/51
f 76/77/52 77/80/52 80/83/52 79/81/52
f 6/84/53 14/85/53 72/75/53 9/86/53
f 14/85/54 13/87/54 73/76/54 72/75/54
f 13/87/55 12/88/55 74/79/55 73/76/55
f 12/88/56 2/89/56 44/90/56 74/79/56
f 74/79/57 44/90/57 43/91/57 77/80/57
f 77/80/58 43/91/58 42/92/58 80/83/58
f 80/83/59 42/92/59 4/35/59 35/93/59
f 79/81/60 80/83/60 35/93/60 34/94/60
f 78/82/61 79/81/61 34/94/61 33/95/61
f 11/96/62 78/82/62 33/95/62 8/97/62
f 10/98/63 75/78/63 78/82/63 11/96/63
f 9/86/64 72/75/64 75/78/64 10/98/64
f 81/99/65 82/100/65 85/101/65 84/102/65
f 82/100/66 83/103/66 86/104/66 85/101/66
f 84/102/67 85/101/67 88/105/67 87/106/67
f 85/101/68 86/104/68 89/107/68 88/105/68
f 2/89/69 17/108/69 81/99/69 44/90/69
f 17/108/70 16/109/70 82/100/70 81/99/70
f 16/109/71 15/110/71 83/103/71 82/100/71
f 15/110/72 1/10/72 30/12/72 83/103/72
f 83/103/73 30/12/73 31/25/73 86/104/73
f 86/104/74 31/25/74 32/23/74 89/107/74
f 89/107/75 32/23/75 3/24/75 21/39/75
f 88/105/76 89/107/76 21/39/76 22/38/76
f 87/106/77 88/105/77 22/38/77 23/36/77
f 42/92/78 87/106/78 23/36/78 4/35/78
f 43/91/79 84/102/79 87/106/79 42/92/79
f 44/90/80 81/99/80 84/102/80 43/91/80
f 90/111/81 91/112/81 94/113/81 93/114/81
f 91/112/82 92/115/82 95/116/82 94/113/82
f 93/114/83 94/113/83 97/117/83 96/118/83
f 94/113/84 95/116/84 98/119/84 97/117/84
f 6/73/85 26/71/85 90/111/85 14/120/85
f 26/71/86 25/70/86 91/112/86 90/111/86
f 25/70/87 24/69/87 92/115/87 91/112/87
f 24/69/88 5/68/88 39/121/88 92/115/88
f 92/115/89 39/121/89 40/122/89 95/116/89
f 95/116/90 40/122/90 41/123/90 98/119/90
f 98/119/91 41/123/91 1/10/91 15/110/91
f 97/117/92 98/119/92 15/110/92 16/109/92
f 96/118/93 97/117/93 16/109/93 17/108/93
f 12/124/94 96/118/94 17/108/94 2/89/94
f 13/125/95 93/114/95 96/118/95 12/124/95
f 14/120/96 90/111/96 93/114/96 13/125/96
